<svg height="496pt" viewBox="0 0 496 495" width="496pt" xmlns="http://www.w3.org/2000/svg"><path d="m496 187.3125-48-24v-2.71875c0-58.425781-25.046875-114.183594-68.703125-152.992188-10.65625-9.472656-27.945313-9.464843-38.585937 0-43.664063 38.800782-68.710938 94.566407-68.710938 152.992188v2.71875l-48 24v116.945312h16v56h16v-56h16v56h16v-56h48v32.128907c-17.894531 1.503906-32 16.550781-32 34.832031 0 16.070312 10.878906 30.015625 26.480469 33.910156l11.582031 2.894532 3.875-15.519532-11.585938-2.894531c-8.449218-2.121094-14.351562-9.6875-14.351562-18.398437 0-10.449219 8.496094-18.953126 18.953125-18.953126h13.046875v-48h16v48h13.046875c10.457031 0 18.953125 8.503907 18.953125 18.953126 0 8.710937-5.902344 16.277343-14.351562 18.390624l-11.585938 2.894532 3.875 15.519531 11.582031-2.894531c15.59375-3.894532 26.480469-17.839844 26.480469-33.910156 0-18.28125-14.105469-33.328126-32-34.832032v-32.121094h48v56h16v-56h16v56h16v-56h16zm-16 9.886719v59.058593h-32v-75.058593zm-96 91.058593h-48v-83.058593l24-12 24 12zm-24-112.945312-40 20v92.945312h-32v-127.664062c0-10.921875 1-21.730469 2.847656-32.335938h29.152344v16h80v-16h29.152344c1.847656 10.605469 2.847656 21.414063 2.847656 32.335938v127.664062h-32v-92.945312zm-120 96.945312h32v16h-32zm185.671875-160h-25.671875v-16h-80v16h-25.671875c2.917969-11.015624 6.863281-21.722656 11.703125-32h107.9375c4.839844 10.277344 8.773438 20.984376 11.703125 32zm-41.671875 0v16h-48v-16zm-32.65625-92.703124c4.769531-4.25 12.535156-4.257813 17.320312 0 14.664063 13.03125 27.015626 28.160156 36.839844 44.703124h-91.007812c9.824218-16.542968 22.183594-31.671874 36.847656-44.703124zm-79.34375 161.644531v75.058593h-32v-59.058593zm176 107.058593v-16h32v16zm0 0"/><path d="m432 376.257812v16c13.230469 0 24 10.765626 24 24 0 13.230469-10.769531 24-24 24h-8v8c0 13.230469-10.769531 24-24 24s-24-10.769531-24-24h-16c0 11.199219 4.65625 21.304688 12.097656 28.574219-3.640625 2.144531-7.746094 3.425781-12.097656 3.425781-7.167969 0-13.9375-3.296874-18.566406-9.03125l-4.1875-5.1875-5.855469 3.1875c-3.710937 2.015626-7.542969 3.03125-11.390625 3.03125-10.839844 0-19.910156-7.265624-22.878906-17.144531 17.65625-4.152343 30.878906-19.953125 30.878906-38.855469h-16c0 13.230469-10.769531 24-24 24s-24-10.769531-24-24c0-13.234374 10.769531-24 24-24v-16c-22.054688 0-40 17.941407-40 40 0 19.566407 14.144531 35.832032 32.734375 39.261719 3.433594 18.59375 19.699219 32.738281 39.265625 32.738281 4.527344 0 8.984375-.800781 13.304688-2.386718 7.320312 6.664062 16.757812 10.386718 26.695312 10.386718 10.046875 0 19.527344-3.761718 26.832031-10.410156 4.144531 1.464844 8.535157 2.410156 13.167969 2.410156 19.550781 0 35.871094-14.105468 39.328125-32.671874 18.566406-3.457032 32.671875-19.777344 32.671875-39.328126 0-22.058593-17.945312-40-40-40zm0 0"/><path d="m208 160.257812h-16v-32h-16v-64h-48v64h-32v-48h-48v48h-16v32h-16v288h-16v48h224v-48h-16zm-32 288v-272h16v272zm-16-105.394531-35.710938-30.605469 35.710938-30.609374zm-4.289062-78.605469-43.710938 37.464844-43.710938-37.464844 43.710938-37.464843zm-31.421876-48 35.710938-30.609374v61.214843zm-60.289062 30.605469v-61.214843l35.710938 30.609374zm0 34.785157 35.710938 30.609374-35.710938 30.605469zm4.289062 78.609374 43.710938-37.464843 43.710938 37.464843-43.710938 37.464844zm31.421876 48-35.710938 30.605469v-61.214843zm60.289062-30.609374v61.214843l-35.710938-30.605469zm-48-171.925782-34.375-29.464844h68.75zm0 213.070313 34.375 29.464843h-68.75zm32-338.535157h16v48h-16zm-80 16h16v32h-16zm-16 48h128v16h-128zm-16 32h16v272h-16zm176 304h-192v-16h192zm0 0"/></svg>